<svg width="20" height="20" viewBox="0 0 20 20" fill="none" xmlns="http://www.w3.org/2000/svg">
<path d="M0.827637 18.1089L6.35596 12.6553L1.96484 8.34717C1.82373 8.20605 1.83203 8.03174 1.97314 7.92383L9.05371 2.58643C9.46045 2.271 9.66797 2.12988 9.9917 2.12988C10.3154 2.12988 10.5229 2.271 10.938 2.58643L18.0103 7.92383C18.1514 8.03174 18.1597 8.21436 18.0103 8.36377L13.6523 12.6553L19.1558 18.0923C19.3301 17.8184 19.4214 17.3535 19.4214 16.7144V8.6626C19.4214 7.55029 19.2139 7.01074 18.3091 6.30518L11.9507 1.45752C11.2119 0.893066 10.7056 0.602539 9.9917 0.602539C9.28613 0.602539 8.77979 0.893066 8.03271 1.45752L1.67432 6.30518C0.786133 7.00244 0.570312 7.55029 0.570312 8.6626V16.7144C0.570312 17.3701 0.661621 17.8267 0.827637 18.1089ZM3.20166 19.5034H16.6074C17.4126 19.5034 17.9854 19.3623 18.3174 19.0801L11.0708 11.875C10.689 11.4932 10.3652 11.3188 10 11.3188C9.64307 11.3188 9.31934 11.4932 8.9375 11.875L1.65771 19.105C1.96484 19.3706 2.48779 19.5034 3.20166 19.5034Z" fill="black" style="mix-blend-mode:overlay"/>
<path d="M0.827637 18.1089L6.35596 12.6553L1.96484 8.34717C1.82373 8.20605 1.83203 8.03174 1.97314 7.92383L9.05371 2.58643C9.46045 2.271 9.66797 2.12988 9.9917 2.12988C10.3154 2.12988 10.5229 2.271 10.938 2.58643L18.0103 7.92383C18.1514 8.03174 18.1597 8.21436 18.0103 8.36377L13.6523 12.6553L19.1558 18.0923C19.3301 17.8184 19.4214 17.3535 19.4214 16.7144V8.6626C19.4214 7.55029 19.2139 7.01074 18.3091 6.30518L11.9507 1.45752C11.2119 0.893066 10.7056 0.602539 9.9917 0.602539C9.28613 0.602539 8.77979 0.893066 8.03271 1.45752L1.67432 6.30518C0.786133 7.00244 0.570312 7.55029 0.570312 8.6626V16.7144C0.570312 17.3701 0.661621 17.8267 0.827637 18.1089ZM3.20166 19.5034H16.6074C17.4126 19.5034 17.9854 19.3623 18.3174 19.0801L11.0708 11.875C10.689 11.4932 10.3652 11.3188 10 11.3188C9.64307 11.3188 9.31934 11.4932 8.9375 11.875L1.65771 19.105C1.96484 19.3706 2.48779 19.5034 3.20166 19.5034Z" fill="black" fill-opacity="0.8" style="mix-blend-mode:overlay"/>
</svg>
