<svg width="200" height="150" viewBox="0 0 200 150" fill="none" xmlns="http://www.w3.org/2000/svg">
<path d="M172.359 102.902C172.359 100.693 170.568 98.9023 168.359 98.9023H32.2148C30.0057 98.9023 28.2148 100.693 28.2148 102.902V128.491C28.2148 130.7 30.0057 132.491 32.2148 132.491H168.359C170.568 132.491 172.359 130.7 172.359 128.491V102.902Z" fill="url(#paint0_linear)"/>
<path d="M172.359 108.666H97.6387V137.519H172.359V108.666Z" fill="url(#paint1_linear)"/>
<path opacity="0.5" d="M167.647 134.59H102.348C101.177 134.59 100.225 133.638 100.225 132.467V121.409C100.225 120.237 101.177 119.285 102.348 119.285H167.647C168.818 119.285 169.77 120.237 169.77 121.409V132.467C169.77 133.638 168.818 134.59 167.647 134.59Z" fill="url(#paint2_linear)"/>
<path d="M176.265 116.015H24.31C22.2839 116.015 20.6484 114.379 20.6484 112.353C20.6484 110.327 22.2839 108.691 24.31 108.691H176.265C178.292 108.691 179.927 110.327 179.927 112.353C179.927 114.355 178.292 116.015 176.265 116.015Z" fill="black"/>
<path d="M135.864 128.537C136.74 128.537 137.451 127.826 137.451 126.95C137.451 126.074 136.74 125.363 135.864 125.363C134.988 125.363 134.277 126.074 134.277 126.95C134.277 127.826 134.988 128.537 135.864 128.537Z" fill="white"/>
<path d="M191.179 97.8047H38.2227V100.002H191.179V97.8047Z" fill="url(#paint3_linear)"/>
<path d="M191.179 97.8047H38.2227V100.002H191.179V97.8047Z" fill="white"/>
<path d="M130.469 65.8516H115.018V96.9992H130.469V65.8516Z" fill="url(#paint4_linear)"/>
<path d="M169.649 82.2774H75.8639C74.6921 82.2774 73.7402 81.3255 73.7402 80.1537V38.8268C73.7402 37.655 74.6921 36.7031 75.8639 36.7031H169.649C170.821 36.7031 171.773 37.655 171.773 38.8268V80.1781C171.773 81.3499 170.821 82.2774 169.649 82.2774Z" fill="url(#paint5_linear)"/>
<path d="M165.695 49.7629H79.8191C78.745 49.7629 77.8906 48.9087 77.8906 47.8345C77.8906 46.7604 78.745 45.9062 79.8191 45.9062H165.72C166.794 45.9062 167.648 46.7604 167.648 47.8345C167.648 48.8841 166.769 49.7629 165.695 49.7629Z" fill="#0022D7"/>
<g style="mix-blend-mode:overlay">
<path d="M92.1961 78.0556H80.601C79.0877 78.0556 77.8672 76.835 77.8672 75.3217V54.1089C77.8672 52.5955 79.0877 51.375 80.601 51.375H92.1961C93.7096 51.375 94.9302 52.5955 94.9302 54.1089V75.3217C94.9302 76.835 93.7096 78.0556 92.1961 78.0556Z" fill="white"/>
</g>
<g style="mix-blend-mode:overlay">
<path d="M112.116 63.2136H100.179C99.3495 63.2136 98.666 62.5301 98.666 61.7V55.3046C98.666 54.4745 99.3495 53.791 100.179 53.791H112.116C112.946 53.791 113.63 54.4745 113.63 55.3046V61.7C113.654 62.5301 112.971 63.2136 112.116 63.2136Z" fill="white"/>
</g>
<g style="mix-blend-mode:overlay">
<path d="M129.446 63.2136H117.51C116.68 63.2136 115.996 62.5301 115.996 61.7V55.3046C115.996 54.4745 116.68 53.791 117.51 53.791H129.446C130.276 53.791 130.96 54.4745 130.96 55.3046V61.7C130.984 62.5301 130.301 63.2136 129.446 63.2136Z" fill="white"/>
</g>
<g style="mix-blend-mode:overlay">
<path d="M146.776 63.2136H134.839C134.01 63.2136 133.326 62.5301 133.326 61.7V55.3046C133.326 54.4745 134.01 53.791 134.839 53.791H146.776C147.606 53.791 148.29 54.4745 148.29 55.3046V61.7C148.314 62.5301 147.631 63.2136 146.776 63.2136Z" fill="white"/>
</g>
<g style="mix-blend-mode:overlay">
<path d="M164.108 63.2136H152.172C151.341 63.2136 150.658 62.5301 150.658 61.7V55.3046C150.658 54.4745 151.341 53.791 152.172 53.791H164.108C164.938 53.791 165.622 54.4745 165.622 55.3046V61.7C165.646 62.5301 164.963 63.2136 164.108 63.2136Z" fill="white"/>
</g>
<path d="M102.741 108.666H64.8798C64.3428 108.666 63.8789 108.227 63.8789 107.666V105.835C63.8789 105.298 64.3184 104.834 64.8798 104.834H100.91C102.472 104.834 103.741 106.103 103.741 107.666C103.741 108.227 103.302 108.666 102.741 108.666Z" fill="#4382FF"/>
<path d="M112.116 74.2722H100.179C99.3495 74.2722 98.666 73.5887 98.666 72.7586V66.3632C98.666 65.5331 99.3495 64.8496 100.179 64.8496H112.116C112.946 64.8496 113.63 65.5331 113.63 66.3632V72.7586C113.654 73.5887 112.971 74.2722 112.116 74.2722Z" fill="#0022D7"/>
<path d="M129.446 74.2722H117.51C116.68 74.2722 115.996 73.5887 115.996 72.7586V66.3632C115.996 65.5331 116.68 64.8496 117.51 64.8496H129.446C130.276 64.8496 130.96 65.5331 130.96 66.3632V72.7586C130.984 73.5887 130.301 74.2722 129.446 74.2722Z" fill="#0022D7"/>
<path d="M146.776 74.2722H134.839C134.01 74.2722 133.326 73.5887 133.326 72.7586V66.3632C133.326 65.5331 134.01 64.8496 134.839 64.8496H146.776C147.606 64.8496 148.29 65.5331 148.29 66.3632V72.7586C148.314 73.5887 147.631 74.2722 146.776 74.2722Z" fill="#0022D7"/>
<path d="M164.108 74.2722H152.172C151.341 74.2722 150.658 73.5887 150.658 72.7586V66.3632C150.658 65.5331 151.341 64.8496 152.172 64.8496H164.108C164.938 64.8496 165.622 65.5331 165.622 66.3632V72.7586C165.646 73.5887 164.963 74.2722 164.108 74.2722Z" fill="#0022D7"/>
<path opacity="0.81" d="M156.465 47.8362H74.8853C73.1521 47.8362 71.7363 46.4204 71.7363 44.6872V12.4165C71.7363 10.6834 73.1521 9.26758 74.8853 9.26758H156.441C158.174 9.26758 159.59 10.6834 159.59 12.4165V44.6628C159.614 46.4204 158.198 47.8362 156.465 47.8362Z" fill="url(#paint6_linear)"/>
<path opacity="0.6" d="M122.22 78.0557H99.836C99.4208 78.0557 99.0547 77.7142 99.0547 77.2747V66.6072C99.0547 66.1923 99.3965 65.8262 99.836 65.8262H122.22C122.635 65.8262 123.001 66.1679 123.001 66.6072V77.2747C123.001 77.7142 122.66 78.0557 122.22 78.0557Z" fill="url(#paint7_linear)"/>
<path d="M120.927 76.5915H101.154C100.886 76.5915 100.666 76.3719 100.666 76.1035C100.666 75.8349 100.886 75.6152 101.154 75.6152H120.927C121.195 75.6152 121.415 75.8349 121.415 76.1035C121.415 76.3719 121.195 76.5915 120.927 76.5915Z" fill="#AAE3FF"/>
<path d="M102.742 68.0466H100.545C100.277 68.0466 100.057 67.827 100.057 67.5583C100.057 67.2899 100.277 67.0703 100.545 67.0703H102.742C103.01 67.0703 103.23 67.2899 103.23 67.5583C103.23 67.827 103.01 68.0466 102.742 68.0466Z" fill="#AAE3FF"/>
<path d="M121.293 68.0466H119.096C118.827 68.0466 118.607 67.827 118.607 67.5583C118.607 67.2899 118.827 67.0703 119.096 67.0703H121.293C121.561 67.0703 121.781 67.2899 121.781 67.5583C121.781 67.827 121.561 68.0466 121.293 68.0466Z" fill="#AAE3FF"/>
<path d="M117.632 68.0466H115.435C115.167 68.0466 114.947 67.827 114.947 67.5583C114.947 67.2899 115.167 67.0703 115.435 67.0703H117.632C117.901 67.0703 118.121 67.2899 118.121 67.5583C118.121 67.827 117.901 68.0466 117.632 68.0466Z" fill="#AAE3FF"/>
<path opacity="0.6" d="M149.316 78.0557H126.931C126.517 78.0557 126.15 77.7142 126.15 77.2747V66.6072C126.15 66.1923 126.492 65.8262 126.931 65.8262H149.316C149.731 65.8262 150.097 66.1679 150.097 66.6072V77.2747C150.097 77.7142 149.755 78.0557 149.316 78.0557Z" fill="url(#paint8_linear)"/>
<path d="M148.022 76.5915H128.25C127.981 76.5915 127.762 76.3719 127.762 76.1035C127.762 75.8349 127.981 75.6152 128.25 75.6152H148.022C148.291 75.6152 148.511 75.8349 148.511 76.1035C148.511 76.3719 148.291 76.5915 148.022 76.5915Z" fill="#AAE3FF"/>
<path d="M129.837 68.0466H127.64C127.372 68.0466 127.152 67.827 127.152 67.5583C127.152 67.2899 127.372 67.0703 127.64 67.0703H129.837C130.106 67.0703 130.326 67.2899 130.326 67.5583C130.326 67.827 130.106 68.0466 129.837 68.0466Z" fill="#AAE3FF"/>
<path d="M148.388 68.0466H146.191C145.923 68.0466 145.703 67.827 145.703 67.5583C145.703 67.2899 145.923 67.0703 146.191 67.0703H148.388C148.657 67.0703 148.876 67.2899 148.876 67.5583C148.876 67.827 148.657 68.0466 148.388 68.0466Z" fill="#AAE3FF"/>
<path d="M144.728 68.0466H142.531C142.263 68.0466 142.043 67.827 142.043 67.5583C142.043 67.2899 142.263 67.0703 142.531 67.0703H144.728C144.996 67.0703 145.216 67.2899 145.216 67.5583C145.216 67.827 144.996 68.0466 144.728 68.0466Z" fill="#AAE3FF"/>
<path opacity="0.6" d="M176.412 78.0557H154.027C153.612 78.0557 153.246 77.7142 153.246 77.2747V66.6072C153.246 66.1923 153.588 65.8262 154.027 65.8262H176.412C176.827 65.8262 177.193 66.1679 177.193 66.6072V77.2747C177.193 77.7142 176.851 78.0557 176.412 78.0557Z" fill="url(#paint9_linear)"/>
<path d="M175.118 76.5915H155.346C155.077 76.5915 154.857 76.3719 154.857 76.1035C154.857 75.8349 155.077 75.6152 155.346 75.6152H175.118C175.387 75.6152 175.606 75.8349 175.606 76.1035C175.606 76.3719 175.387 76.5915 175.118 76.5915Z" fill="#AAE3FF"/>
<path d="M156.933 68.0466H154.736C154.468 68.0466 154.248 67.827 154.248 67.5583C154.248 67.2899 154.468 67.0703 154.736 67.0703H156.933C157.202 67.0703 157.421 67.2899 157.421 67.5583C157.421 67.827 157.202 68.0466 156.933 68.0466Z" fill="#AAE3FF"/>
<path d="M175.484 68.0466H173.287C173.019 68.0466 172.799 67.827 172.799 67.5583C172.799 67.2899 173.019 67.0703 173.287 67.0703H175.484C175.753 67.0703 175.972 67.2899 175.972 67.5583C175.972 67.827 175.753 68.0466 175.484 68.0466Z" fill="#AAE3FF"/>
<path d="M171.824 68.0466H169.627C169.358 68.0466 169.139 67.827 169.139 67.5583C169.139 67.2899 169.358 67.0703 169.627 67.0703H171.824C172.092 67.0703 172.312 67.2899 172.312 67.5583C172.312 67.827 172.092 68.0466 171.824 68.0466Z" fill="#AAE3FF"/>
<g style="mix-blend-mode:overlay">
<path d="M88.2512 19.2744H64.7193C64.1336 19.2744 63.6699 18.8106 63.6699 18.2248V13.7333C63.6699 13.1474 64.1336 12.6836 64.7193 12.6836H88.2512C88.837 12.6836 89.3008 13.1474 89.3008 13.7333V18.2248C89.3008 18.7862 88.837 19.2744 88.2512 19.2744ZM64.7193 12.9277C64.2801 12.9277 63.9139 13.2939 63.9139 13.7333V18.2248C63.9139 18.6642 64.2801 19.0303 64.7193 19.0303H88.2512C88.6907 19.0303 89.0568 18.6642 89.0568 18.2248V13.7333C89.0568 13.2939 88.6907 12.9277 88.2512 12.9277H64.7193Z" fill="white"/>
</g>
<path opacity="0.8" d="M87.5561 25.6222H65.1717C64.7568 25.6222 64.3906 25.2805 64.3906 24.8411V14.1737C64.3906 13.7587 64.7324 13.3926 65.1717 13.3926H87.5561C87.9712 13.3926 88.3374 13.7343 88.3374 14.1737V24.8411C88.3374 25.2561 87.9956 25.6222 87.5561 25.6222Z" fill="url(#paint10_linear)"/>
<g style="mix-blend-mode:overlay">
<path d="M68.0777 15.6131H65.8808C65.6122 15.6131 65.3926 15.3934 65.3926 15.1249C65.3926 14.8564 65.6122 14.6367 65.8808 14.6367H68.0777C68.3463 14.6367 68.5659 14.8564 68.5659 15.1249C68.5659 15.3934 68.3463 15.6131 68.0777 15.6131Z" fill="white"/>
</g>
<g style="mix-blend-mode:overlay">
<path d="M86.6306 15.6131H84.4336C84.1652 15.6131 83.9453 15.3934 83.9453 15.1249C83.9453 14.8564 84.1652 14.6367 84.4336 14.6367H86.6306C86.899 14.6367 87.1187 14.8564 87.1187 15.1249C87.1187 15.3934 86.899 15.6131 86.6306 15.6131Z" fill="white"/>
</g>
<g style="mix-blend-mode:overlay">
<path d="M82.9683 15.6131H80.7715C80.5028 15.6131 80.2832 15.3934 80.2832 15.1249C80.2832 14.8564 80.5028 14.6367 80.7715 14.6367H82.9683C83.2369 14.6367 83.4566 14.8564 83.4566 15.1249C83.4566 15.3934 83.2369 15.6131 82.9683 15.6131Z" fill="white"/>
</g>
<path d="M85.7501 22.2043H66.7831C66.2948 22.2043 65.9043 21.8137 65.9043 21.3255V17.4686C65.9043 16.9804 66.2948 16.5898 66.7831 16.5898H85.7501C86.2382 16.5898 86.6289 16.9804 86.6289 17.4686V21.3011C86.6289 21.7893 86.2382 22.2043 85.7501 22.2043Z" fill="url(#paint11_linear)"/>
<g style="mix-blend-mode:overlay">
<path d="M75.6426 18.714V20.3007C75.6426 20.4716 75.8378 20.5936 75.9843 20.4716L77.1071 19.666C77.2293 19.5684 77.2293 19.3975 77.1071 19.2999L75.9843 18.4943C75.8378 18.4211 75.6426 18.5431 75.6426 18.714Z" fill="white"/>
</g>
<g style="mix-blend-mode:overlay">
<path d="M118.521 19.2744H94.9891C94.4033 19.2744 93.9395 18.8106 93.9395 18.2248V13.7333C93.9395 13.1474 94.4033 12.6836 94.9891 12.6836H118.521C119.107 12.6836 119.571 13.1474 119.571 13.7333V18.2248C119.571 18.7862 119.107 19.2744 118.521 19.2744ZM94.9891 12.9277C94.5498 12.9277 94.1837 13.2939 94.1837 13.7333V18.2248C94.1837 18.6642 94.5498 19.0303 94.9891 19.0303H118.521C118.96 19.0303 119.326 18.6642 119.326 18.2248V13.7333C119.326 13.2939 118.96 12.9277 118.521 12.9277H94.9891Z" fill="white"/>
</g>
<path opacity="0.67" d="M117.826 25.6222H95.4414C95.0263 25.6222 94.6602 25.2805 94.6602 24.8411V14.1737C94.6602 13.7587 95.0019 13.3926 95.4414 13.3926H117.826C118.241 13.3926 118.607 13.7343 118.607 14.1737V24.8411C118.607 25.2561 118.265 25.6222 117.826 25.6222Z" fill="url(#paint12_linear)"/>
<g style="mix-blend-mode:overlay">
<path d="M98.3474 15.6131H96.1504C95.882 15.6131 95.6621 15.3934 95.6621 15.1249C95.6621 14.8564 95.882 14.6367 96.1504 14.6367H98.3474C98.6158 14.6367 98.8355 14.8564 98.8355 15.1249C98.8355 15.3934 98.6158 15.6131 98.3474 15.6131Z" fill="white"/>
</g>
<g style="mix-blend-mode:overlay">
<path d="M116.898 15.6131H114.701C114.433 15.6131 114.213 15.3934 114.213 15.1249C114.213 14.8564 114.433 14.6367 114.701 14.6367H116.898C117.167 14.6367 117.386 14.8564 117.386 15.1249C117.386 15.3934 117.167 15.6131 116.898 15.6131Z" fill="white"/>
</g>
<g style="mix-blend-mode:overlay">
<path d="M113.238 15.6131H111.041C110.773 15.6131 110.553 15.3934 110.553 15.1249C110.553 14.8564 110.773 14.6367 111.041 14.6367H113.238C113.506 14.6367 113.726 14.8564 113.726 15.1249C113.726 15.3934 113.506 15.6131 113.238 15.6131Z" fill="white"/>
</g>
<path d="M116.02 22.2043H97.0526C96.5646 22.2043 96.1738 21.8137 96.1738 21.3255V17.4686C96.1738 16.9804 96.5646 16.5898 97.0526 16.5898H116.02C116.508 16.5898 116.898 16.9804 116.898 17.4686V21.3011C116.898 21.7893 116.508 22.2043 116.02 22.2043Z" fill="url(#paint13_linear)"/>
<g style="mix-blend-mode:overlay">
<path d="M105.912 18.714V20.3007C105.912 20.4716 106.107 20.5936 106.254 20.4716L107.377 19.666C107.499 19.5684 107.499 19.3975 107.377 19.2999L106.254 18.4943C106.107 18.4211 105.912 18.5431 105.912 18.714Z" fill="white"/>
</g>
<g style="mix-blend-mode:overlay">
<path d="M148.79 19.2744H125.259C124.673 19.2744 124.209 18.8106 124.209 18.2248V13.7333C124.209 13.1474 124.673 12.6836 125.259 12.6836H148.79C149.376 12.6836 149.84 13.1474 149.84 13.7333V18.2248C149.84 18.7862 149.376 19.2744 148.79 19.2744ZM125.259 12.9277C124.819 12.9277 124.453 13.2939 124.453 13.7333V18.2248C124.453 18.6642 124.819 19.0303 125.259 19.0303H148.79C149.23 19.0303 149.596 18.6642 149.596 18.2248V13.7333C149.596 13.2939 149.23 12.9277 148.79 12.9277H125.259Z" fill="white"/>
</g>
<path opacity="0.67" d="M148.093 25.6222H125.709C125.294 25.6222 124.928 25.2805 124.928 24.8411V14.1737C124.928 13.7587 125.269 13.3926 125.709 13.3926H148.093C148.508 13.3926 148.874 13.7343 148.874 14.1737V24.8411C148.874 25.2561 148.533 25.6222 148.093 25.6222Z" fill="url(#paint14_linear)"/>
<g style="mix-blend-mode:overlay">
<path d="M128.617 15.6131H126.42C126.151 15.6131 125.932 15.3934 125.932 15.1249C125.932 14.8564 126.151 14.6367 126.42 14.6367H128.617C128.885 14.6367 129.105 14.8564 129.105 15.1249C129.105 15.3934 128.885 15.6131 128.617 15.6131Z" fill="white"/>
</g>
<g style="mix-blend-mode:overlay">
<path d="M147.168 15.6131H144.971C144.702 15.6131 144.482 15.3934 144.482 15.1249C144.482 14.8564 144.702 14.6367 144.971 14.6367H147.168C147.436 14.6367 147.656 14.8564 147.656 15.1249C147.656 15.3934 147.436 15.6131 147.168 15.6131Z" fill="white"/>
</g>
<g style="mix-blend-mode:overlay">
<path d="M143.505 15.6131H141.309C141.04 15.6131 140.82 15.3934 140.82 15.1249C140.82 14.8564 141.04 14.6367 141.309 14.6367H143.505C143.774 14.6367 143.994 14.8564 143.994 15.1249C143.994 15.3934 143.774 15.6131 143.505 15.6131Z" fill="white"/>
</g>
<path d="M146.289 22.2043H127.322C126.834 22.2043 126.443 21.8137 126.443 21.3255V17.4686C126.443 16.9804 126.834 16.5898 127.322 16.5898H146.289C146.777 16.5898 147.168 16.9804 147.168 17.4686V21.3011C147.168 21.7893 146.777 22.2043 146.289 22.2043Z" fill="url(#paint15_linear)"/>
<g style="mix-blend-mode:overlay">
<path d="M136.182 18.714V20.3007C136.182 20.4716 136.377 20.5936 136.523 20.4716L137.646 19.666C137.768 19.5684 137.768 19.3975 137.646 19.2999L136.523 18.4943C136.377 18.4211 136.182 18.5431 136.182 18.714Z" fill="white"/>
</g>
<path d="M97.2471 40.7556H77.4746C77.206 40.7556 76.9863 40.536 76.9863 40.2676C76.9863 39.9989 77.206 39.7793 77.4746 39.7793H97.2471C97.5154 39.7793 97.7353 39.9989 97.7353 40.2676C97.7353 40.536 97.5154 40.7556 97.2471 40.7556Z" fill="#151DBF"/>
<path d="M79.062 32.2126H76.865C76.5966 32.2126 76.377 31.993 76.377 31.7244C76.377 31.456 76.5966 31.2363 76.865 31.2363H79.062C79.3304 31.2363 79.5503 31.456 79.5503 31.7244C79.5503 31.993 79.3304 32.2126 79.062 32.2126Z" fill="#151DBF"/>
<g style="mix-blend-mode:overlay">
<path d="M96.7345 38.803H77.7675C77.2794 38.803 76.8887 38.4124 76.8887 37.9242V34.0917C76.8887 33.6034 77.2794 33.2129 77.7675 33.2129H96.7345C97.2228 33.2129 97.6133 33.6034 97.6133 34.0917V37.9242C97.6133 38.3881 97.2228 38.803 96.7345 38.803Z" fill="black"/>
</g>
<path d="M86.6289 35.3138V36.9004C86.6289 37.0713 86.8242 37.1932 86.9707 37.0713L88.0937 36.2657C88.2156 36.1682 88.2156 35.9973 88.0937 35.8995L86.9707 35.0939C86.8242 35.0208 86.6289 35.1429 86.6289 35.3138Z" fill="#A0A5FF"/>
<path d="M124.343 40.7556H104.57C104.302 40.7556 104.082 40.536 104.082 40.2676C104.082 39.9989 104.302 39.7793 104.57 39.7793H124.343C124.611 39.7793 124.831 39.9989 124.831 40.2676C124.831 40.536 124.611 40.7556 124.343 40.7556Z" fill="#151DBF"/>
<g style="mix-blend-mode:overlay">
<path d="M123.832 38.803H104.865C104.377 38.803 103.986 38.4124 103.986 37.9242V34.0917C103.986 33.6034 104.377 33.2129 104.865 33.2129H123.832C124.32 33.2129 124.711 33.6034 124.711 34.0917V37.9242C124.711 38.3881 124.32 38.803 123.832 38.803Z" fill="black"/>
</g>
<path d="M113.725 35.3138V36.9004C113.725 37.0713 113.92 37.1932 114.066 37.0713L115.189 36.2657C115.311 36.1682 115.311 35.9973 115.189 35.8995L114.066 35.0939C113.92 35.0208 113.725 35.1429 113.725 35.3138Z" fill="#A0A5FF"/>
<path d="M151.438 40.7556H131.666C131.398 40.7556 131.178 40.536 131.178 40.2676C131.178 39.9989 131.398 39.7793 131.666 39.7793H151.438C151.707 39.7793 151.927 39.9989 151.927 40.2676C151.927 40.536 151.707 40.7556 151.438 40.7556Z" fill="#151DBF"/>
<g style="mix-blend-mode:overlay">
<path d="M150.928 38.803H131.961C131.473 38.803 131.082 38.4124 131.082 37.9242V34.0917C131.082 33.6034 131.473 33.2129 131.961 33.2129H150.928C151.416 33.2129 151.806 33.6034 151.806 34.0917V37.9242C151.806 38.3881 151.416 38.803 150.928 38.803Z" fill="black"/>
</g>
<path d="M140.82 35.3138V36.9004C140.82 37.0713 141.016 37.1932 141.162 37.0713L142.285 36.2657C142.407 36.1682 142.407 35.9973 142.285 35.8995L141.162 35.0939C141.016 35.0208 140.82 35.1429 140.82 35.3138Z" fill="#A0A5FF"/>
<path d="M147.534 97.7791H97.9805C97.9805 96.9247 98.6884 96.2168 99.5428 96.2168H145.971C146.826 96.2168 147.534 96.9247 147.534 97.7791Z" fill="url(#paint16_linear)"/>
<path d="M64.8535 56.1834C64.0237 56.1834 62.9251 56.0612 62.8276 55.2314C62.7788 54.8407 63.0716 54.4745 63.4867 54.4258C63.7063 54.4014 63.926 54.4992 64.0969 54.6454C64.219 54.67 64.5608 54.7432 65.3418 54.6944C65.7813 54.67 66.3427 52.6195 66.4648 50.154H63.8529C63.4377 50.154 63.1206 49.8366 63.1206 49.4217C63.1206 49.0066 63.4377 48.6895 63.8529 48.6895H67.9781V49.4217C67.9538 51.3989 67.6607 56.0369 65.4395 56.1346C65.2443 56.159 65.049 56.1834 64.8535 56.1834ZM64.2677 55.0606C64.2677 55.0606 64.2677 55.0849 64.2677 55.0606C64.2677 55.0849 64.2677 55.0606 64.2677 55.0606Z" fill="#1F1E1F"/>
<path d="M64.4151 64.3377C64.2688 64.5329 64.0733 64.777 63.8537 65.0212C62.4866 66.5101 59.948 68.5363 59.948 68.5363L58.874 62.9219L58.0684 58.6745C58.0684 58.6745 60.3629 48.8126 63.9271 48.8126C63.9271 48.7636 65.4647 62.8729 64.4151 64.3377Z" fill="#F2A007"/>
<path d="M92.0239 117.258C89.1436 117.258 86.2874 115.94 84.4567 113.426L68.8095 92.1885C65.7339 88.0143 66.6127 82.1314 70.7867 79.0556C74.961 75.9799 80.8438 76.8587 83.9197 81.033L99.5668 102.27C102.642 106.444 101.764 112.327 97.5896 115.403C95.9052 116.672 93.9524 117.258 92.0239 117.258Z" fill="url(#paint17_linear)"/>
<path d="M17.7428 110.79C14.2033 110.79 11.0787 108.203 10.5173 104.59C9.88263 100.587 12.6166 96.8518 16.6199 96.217L29.8993 94.1423C33.9027 93.5076 37.6374 96.2416 38.272 100.245C38.9067 104.248 36.1727 107.983 32.1695 108.618L18.8901 110.693C18.4995 110.766 18.109 110.79 17.7428 110.79Z" fill="#7835A9"/>
<path d="M63.8547 65.0214L60.1443 68.7318L58.875 62.8977L62.0971 57.8203L62.9271 64.7528L63.8547 65.0214Z" fill="#875300"/>
<path d="M17.7424 110.79C15.7895 110.79 13.8123 110.18 12.1279 108.935C7.97817 105.835 7.09939 99.9522 10.1995 95.7779L21.8921 80.1064C24.9923 75.9567 30.8751 75.0779 35.0494 78.1779C39.1993 81.2782 40.0781 87.161 36.9779 91.3353L25.2852 107.007C23.43 109.497 20.5984 110.79 17.7424 110.79Z" fill="#F6F3F1"/>
<path d="M17.7424 110.79C15.7895 110.79 13.8123 110.18 12.1279 108.935C7.97817 105.835 7.09939 99.9522 10.1995 95.7779L21.8921 80.1064C24.9923 75.9567 30.8751 75.0779 35.0494 78.1779C39.2237 81.2782 40.0781 87.161 36.9779 91.3353L25.2852 107.007C23.43 109.497 20.5984 110.79 17.7424 110.79Z" fill="url(#paint18_linear)"/>
<path d="M63.3174 46.8105C63.3174 46.8105 63.1953 47.6406 63 48.983C62.9025 49.6665 62.7804 50.5209 62.6583 51.4485C62.6339 51.6194 62.6095 51.8146 62.5851 51.9855C62.4874 52.6203 62.4142 53.3038 62.3165 53.9873C62.2434 54.4999 62.1702 55.037 62.1212 55.574C61.9993 56.4771 61.9016 57.4047 61.7795 58.3322C61.4133 61.3347 61.0716 64.4106 60.8763 66.876C60.8519 67.1934 60.8276 67.4862 60.8032 67.7792C60.8032 67.8769 60.7788 67.9501 60.7788 68.0478C60.7054 69.0728 60.6811 69.9516 60.7054 70.6108C60.7054 71.1722 60.7544 71.6117 60.8276 71.8557C60.8519 71.9291 60.8763 72.0022 60.9253 72.0266C61.3646 72.5392 58.8747 72.1731 55.677 71.5139C50.6971 70.5133 44.0332 68.8288 44.0332 68.8288L44.1797 66.3634L44.2772 64.7036L44.4969 60.7977L44.7411 56.5503L63.3174 46.8105Z" fill="#F2A007"/>
<path d="M43.5215 59.4053C43.3263 59.4053 43.1064 59.3566 42.9111 59.2345C42.8136 59.1613 40.5191 57.6478 40.7874 54.8162C40.9339 53.2539 41.6906 52.0823 41.764 51.9602C42.1057 51.4475 42.7893 51.3257 43.2773 51.6672C43.7899 52.0089 43.9121 52.6925 43.5947 53.1807C43.5703 53.2051 43.0577 54.0108 42.9601 55.036C42.8136 56.5494 44.0829 57.4038 44.0829 57.4038C44.5956 57.7455 44.7421 58.4047 44.4003 58.9173C44.2294 59.2345 43.8633 59.4053 43.5215 59.4053Z" fill="#F2A007"/>
<path d="M66.0743 76.1996L45.0323 77.7863H39.1738L41.5659 71.0734L42.4937 68.5104L42.8598 67.5095C43.0795 66.9237 43.5921 66.4842 44.2269 66.4111C44.3244 66.3867 44.4221 66.3867 44.5197 66.3867L49.2309 66.5086L59.6786 66.7529H59.7763H60.2646C60.5086 66.7529 60.7282 66.8016 60.9235 66.8991C61.1187 66.9969 61.3142 67.119 61.4605 67.2899C61.4849 67.3143 61.5095 67.3386 61.5339 67.363C61.6314 67.4851 61.7048 67.6073 61.7779 67.7535L63.5111 71.6348L63.7063 72.0499L65.8057 74.442L66.0743 76.1996Z" fill="url(#paint19_linear)"/>
<path d="M66.0743 76.1996L45.0323 77.7863H39.1738L40.5896 71.5617C40.9314 71.3908 41.2488 71.2443 41.5659 71.0734L42.4937 68.5104L42.8598 67.5095C43.0795 66.9237 43.5921 66.4842 44.2269 66.4111C44.3244 66.3867 44.4221 66.3867 44.5197 66.3867C48.0835 69.731 54.3815 70.2434 60.777 70.6585L63.5355 71.6594L63.7307 72.0743L65.83 74.4664L66.0743 76.1996Z" fill="url(#paint20_linear)"/>
<path d="M44.204 60.2357C42.5686 55.7684 37.2959 47.8838 41.9826 41.8544C46.6695 35.8251 53.3336 30.9429 58.4598 32.5052C63.586 34.0675 65.7097 35.1659 64.5869 38.7298C63.4638 42.2939 65.3923 49.3486 64.8796 50.2761C64.367 51.2036 60.3638 52.7659 60.0221 55.1093C59.6803 57.4529 58.5817 63.8971 55.5792 64.0192C53.358 64.0923 49.5742 63.7506 47.7191 63.5797C47.0112 63.5066 46.3521 63.1648 45.8638 62.6278C45.2537 61.9443 44.4724 61.0167 44.204 60.2357Z" fill="url(#paint21_linear)"/>
<path d="M81.2829 80.0573L80.0136 91.6033L78.0851 109.057L78.0118 109.765L77.0842 118.235L75.7906 129.977V130.025H28.4341L26.2616 94.3374L25.3828 80.1548C25.3828 76.42 41.3472 71.1961 41.5671 71.0742L55.7007 71.5622L60.8513 71.8796L63.6585 72.0505C67.1493 74.8577 81.2829 75.883 81.2829 80.0573Z" fill="url(#paint22_linear)"/>
<path opacity="0.5" d="M78.0608 109.032L77.9874 109.74L77.0599 118.211L75.7662 129.952V130.001H28.4341L26.2616 94.3131L25.3828 80.1548C25.3828 76.42 41.3472 71.1961 41.5671 71.0742L55.7007 71.5622L60.8513 71.8796L63.6585 72.0505C33.6824 81.4241 78.0608 109.032 78.0608 109.032Z" fill="url(#paint23_linear)"/>
<path d="M61.0702 52.7184C60.7529 52.7184 60.4845 52.5229 60.3623 52.2058C60.2402 51.815 60.4355 51.4001 60.8262 51.278L66.1964 49.5204C66.5869 49.3985 67.0021 49.5938 67.124 49.9843C67.2461 50.3748 67.0508 50.79 66.6603 50.9119L61.2899 52.6694C61.2167 52.6938 61.1434 52.7184 61.0702 52.7184Z" fill="#1F1E1F"/>
<path d="M23.3066 137.544L30.5321 95.4847C31.2156 92.7994 33.437 90.9199 36 90.9199H64.3163C66.8795 90.9199 69.1251 92.7994 69.7842 95.4847L78.9625 137.544C59.0436 142.621 45.447 140.937 23.3066 137.544Z" fill="url(#paint24_linear)"/>
<path d="M62.9508 59.4055C62.6334 59.4055 62.316 59.259 62.0964 58.9904C61.9743 58.8195 60.8269 57.3306 61.0711 54.7674C61.2176 53.2051 62.316 51.5452 62.4382 51.3744C62.7799 50.8617 63.4632 50.7396 63.9515 51.0814C64.4641 51.4231 64.5862 52.1066 64.2445 52.5949C64.0002 52.961 63.3413 54.1084 63.2436 54.9626C63.0971 56.647 63.7806 57.599 63.805 57.6236C64.1957 58.0872 64.098 58.7707 63.6341 59.1613C63.4145 59.3321 63.1704 59.4055 62.9508 59.4055Z" fill="#C68306"/>
<path d="M181.415 48.6249H180.731C180.658 48.6249 180.609 48.5761 180.609 48.5028C180.609 48.4296 180.658 48.3809 180.731 48.3809H181.415C181.488 48.3809 181.537 48.4296 181.537 48.5028C181.537 48.5761 181.488 48.6249 181.415 48.6249ZM179.511 48.6249H178.29C178.217 48.6249 178.168 48.5761 178.168 48.5028C178.168 48.4296 178.217 48.3809 178.29 48.3809H179.511C179.584 48.3809 179.633 48.4296 179.633 48.5028C179.633 48.5761 179.584 48.6249 179.511 48.6249ZM177.07 48.6249H175.849C175.776 48.6249 175.727 48.5761 175.727 48.5028C175.727 48.4296 175.776 48.3809 175.849 48.3809H177.07C177.143 48.3809 177.192 48.4296 177.192 48.5028C177.192 48.5761 177.143 48.6249 177.07 48.6249ZM174.629 48.6249H173.408C173.335 48.6249 173.286 48.5761 173.286 48.5028C173.286 48.4296 173.335 48.3809 173.408 48.3809H174.629C174.702 48.3809 174.751 48.4296 174.751 48.5028C174.751 48.5761 174.702 48.6249 174.629 48.6249ZM172.187 48.6249H170.967C170.894 48.6249 170.845 48.5761 170.845 48.5028C170.845 48.4296 170.894 48.3809 170.967 48.3809H172.187C172.261 48.3809 172.31 48.4296 172.31 48.5028C172.31 48.5761 172.261 48.6249 172.187 48.6249ZM169.746 48.6249H168.526C168.453 48.6249 168.404 48.5761 168.404 48.5028C168.404 48.4296 168.453 48.3809 168.526 48.3809H169.746C169.82 48.3809 169.868 48.4296 169.868 48.5028C169.868 48.5761 169.82 48.6249 169.746 48.6249ZM167.305 48.6249H166.085C166.012 48.6249 165.963 48.5761 165.963 48.5028C165.963 48.4296 166.012 48.3809 166.085 48.3809H167.305C167.379 48.3809 167.427 48.4296 167.427 48.5028C167.427 48.5761 167.379 48.6249 167.305 48.6249ZM164.864 48.6249H163.644C163.571 48.6249 163.522 48.5761 163.522 48.5028C163.522 48.4296 163.571 48.3809 163.644 48.3809H164.864C164.938 48.3809 164.986 48.4296 164.986 48.5028C164.986 48.5761 164.938 48.6249 164.864 48.6249ZM162.423 48.6249H161.203C161.129 48.6249 161.081 48.5761 161.081 48.5028C161.081 48.4296 161.129 48.3809 161.203 48.3809H162.423C162.496 48.3809 162.545 48.4296 162.545 48.5028C162.545 48.5761 162.496 48.6249 162.423 48.6249ZM159.982 48.6249H158.762C158.688 48.6249 158.64 48.5761 158.64 48.5028C158.64 48.4296 158.688 48.3809 158.762 48.3809H159.982C160.055 48.3809 160.104 48.4296 160.104 48.5028C160.104 48.5761 160.055 48.6249 159.982 48.6249ZM157.541 48.6249H156.321C156.247 48.6249 156.199 48.5761 156.199 48.5028C156.199 48.4296 156.247 48.3809 156.321 48.3809H157.541C157.614 48.3809 157.663 48.4296 157.663 48.5028C157.663 48.5761 157.614 48.6249 157.541 48.6249ZM155.1 48.6249H153.88C153.806 48.6249 153.757 48.5761 153.757 48.5028C153.757 48.4296 153.806 48.3809 153.88 48.3809H155.1C155.173 48.3809 155.222 48.4296 155.222 48.5028C155.222 48.5761 155.173 48.6249 155.1 48.6249ZM152.659 48.6249H151.438C151.365 48.6249 151.317 48.5761 151.317 48.5028C151.317 48.4296 151.365 48.3809 151.438 48.3809H152.659C152.732 48.3809 152.781 48.4296 152.781 48.5028C152.781 48.5761 152.732 48.6249 152.659 48.6249ZM150.218 48.6249H148.997C148.924 48.6249 148.875 48.5761 148.875 48.5028C148.875 48.4296 148.924 48.3809 148.997 48.3809H150.218C150.291 48.3809 150.34 48.4296 150.34 48.5028C150.34 48.5761 150.291 48.6249 150.218 48.6249ZM147.777 48.6249H146.557C146.483 48.6249 146.434 48.5761 146.434 48.5028C146.434 48.4296 146.483 48.3809 146.557 48.3809H147.777C147.85 48.3809 147.899 48.4296 147.899 48.5028C147.899 48.5761 147.85 48.6249 147.777 48.6249ZM145.336 48.6249H144.115C144.042 48.6249 143.993 48.5761 143.993 48.5028C143.993 48.4296 144.042 48.3809 144.115 48.3809H145.336C145.409 48.3809 145.458 48.4296 145.458 48.5028C145.458 48.5761 145.409 48.6249 145.336 48.6249ZM142.895 48.6249H141.674C141.601 48.6249 141.552 48.5761 141.552 48.5028C141.552 48.4296 141.601 48.3809 141.674 48.3809H142.895C142.968 48.3809 143.017 48.4296 143.017 48.5028C143.017 48.5761 142.968 48.6249 142.895 48.6249ZM140.454 48.6249H139.233C139.16 48.6249 139.111 48.5761 139.111 48.5028C139.111 48.4296 139.16 48.3809 139.233 48.3809H140.454C140.527 48.3809 140.576 48.4296 140.576 48.5028C140.576 48.5761 140.527 48.6249 140.454 48.6249ZM138.013 48.6249H136.792C136.719 48.6249 136.67 48.5761 136.67 48.5028C136.67 48.4296 136.719 48.3809 136.792 48.3809H138.013C138.086 48.3809 138.135 48.4296 138.135 48.5028C138.135 48.5761 138.086 48.6249 138.013 48.6249ZM135.572 48.6249H134.351C134.278 48.6249 134.229 48.5761 134.229 48.5028C134.229 48.4296 134.278 48.3809 134.351 48.3809H135.572C135.645 48.3809 135.694 48.4296 135.694 48.5028C135.694 48.5761 135.645 48.6249 135.572 48.6249ZM133.131 48.6249H131.91C131.837 48.6249 131.788 48.5761 131.788 48.5028C131.788 48.4296 131.837 48.3809 131.91 48.3809H133.131C133.204 48.3809 133.253 48.4296 133.253 48.5028C133.253 48.5761 133.204 48.6249 133.131 48.6249ZM130.69 48.6249H129.469C129.396 48.6249 129.347 48.5761 129.347 48.5028C129.347 48.4296 129.396 48.3809 129.469 48.3809H130.69C130.763 48.3809 130.812 48.4296 130.812 48.5028C130.812 48.5761 130.763 48.6249 130.69 48.6249ZM128.249 48.6249H127.028C126.955 48.6249 126.906 48.5761 126.906 48.5028C126.906 48.4296 126.955 48.3809 127.028 48.3809H128.249C128.322 48.3809 128.371 48.4296 128.371 48.5028C128.371 48.5761 128.322 48.6249 128.249 48.6249ZM125.808 48.6249H124.587C124.514 48.6249 124.465 48.5761 124.465 48.5028C124.465 48.4296 124.514 48.3809 124.587 48.3809H125.808C125.881 48.3809 125.93 48.4296 125.93 48.5028C125.93 48.5761 125.881 48.6249 125.808 48.6249ZM123.366 48.6249H122.146C122.073 48.6249 122.024 48.5761 122.024 48.5028C122.024 48.4296 122.073 48.3809 122.146 48.3809H123.366C123.44 48.3809 123.489 48.4296 123.489 48.5028C123.489 48.5761 123.44 48.6249 123.366 48.6249ZM120.925 48.6249H119.705C119.632 48.6249 119.583 48.5761 119.583 48.5028C119.583 48.4296 119.632 48.3809 119.705 48.3809H120.925C120.999 48.3809 121.047 48.4296 121.047 48.5028C121.047 48.5761 120.999 48.6249 120.925 48.6249ZM118.484 48.6249H117.264C117.191 48.6249 117.142 48.5761 117.142 48.5028C117.142 48.4296 117.191 48.3809 117.264 48.3809H118.484C118.558 48.3809 118.606 48.4296 118.606 48.5028C118.606 48.5761 118.558 48.6249 118.484 48.6249ZM116.043 48.6249H114.823C114.75 48.6249 114.701 48.5761 114.701 48.5028C114.701 48.4296 114.75 48.3809 114.823 48.3809H116.043C116.117 48.3809 116.165 48.4296 116.165 48.5028C116.165 48.5761 116.117 48.6249 116.043 48.6249ZM113.602 48.6249H112.382C112.308 48.6249 112.26 48.5761 112.26 48.5028C112.26 48.4296 112.308 48.3809 112.382 48.3809H113.602C113.675 48.3809 113.724 48.4296 113.724 48.5028C113.724 48.5761 113.675 48.6249 113.602 48.6249ZM111.161 48.6249H109.941C109.867 48.6249 109.819 48.5761 109.819 48.5028C109.819 48.4296 109.867 48.3809 109.941 48.3809H111.161C111.234 48.3809 111.283 48.4296 111.283 48.5028C111.283 48.5761 111.234 48.6249 111.161 48.6249ZM108.72 48.6249H107.5C107.426 48.6249 107.377 48.5761 107.377 48.5028C107.377 48.4296 107.426 48.3809 107.5 48.3809H108.72C108.793 48.3809 108.842 48.4296 108.842 48.5028C108.842 48.5761 108.793 48.6249 108.72 48.6249ZM106.279 48.6249H105.059C104.985 48.6249 104.936 48.5761 104.936 48.5028C104.936 48.4296 104.985 48.3809 105.059 48.3809H106.279C106.352 48.3809 106.401 48.4296 106.401 48.5028C106.401 48.5761 106.352 48.6249 106.279 48.6249ZM103.838 48.6249H102.617C102.544 48.6249 102.496 48.5761 102.496 48.5028C102.496 48.4296 102.544 48.3809 102.617 48.3809H103.838C103.911 48.3809 103.96 48.4296 103.96 48.5028C103.96 48.5761 103.911 48.6249 103.838 48.6249ZM101.397 48.6249H100.176C100.103 48.6249 100.054 48.5761 100.054 48.5028C100.054 48.4296 100.103 48.3809 100.176 48.3809H101.397C101.47 48.3809 101.519 48.4296 101.519 48.5028C101.519 48.5761 101.47 48.6249 101.397 48.6249ZM98.9558 48.6249H97.7355C97.6621 48.6249 97.6134 48.5761 97.6134 48.5028C97.6134 48.4296 97.6621 48.3809 97.7355 48.3809H98.9558C99.0292 48.3809 99.078 48.4296 99.078 48.5028C99.078 48.5761 99.0292 48.6249 98.9558 48.6249ZM96.515 48.6249H95.2944C95.2211 48.6249 95.1723 48.5761 95.1723 48.5028C95.1723 48.4296 95.2211 48.3809 95.2944 48.3809H96.515C96.5881 48.3809 96.6369 48.4296 96.6369 48.5028C96.6369 48.5761 96.5881 48.6249 96.515 48.6249ZM94.0739 48.6249H92.8533C92.78 48.6249 92.7312 48.5761 92.7312 48.5028C92.7312 48.4296 92.78 48.3809 92.8533 48.3809H94.0739C94.147 48.3809 94.1958 48.4296 94.1958 48.5028C94.1958 48.5761 94.147 48.6249 94.0739 48.6249ZM91.6328 48.6249H90.4123C90.3391 48.6249 90.2901 48.5761 90.2901 48.5028C90.2901 48.4296 90.3391 48.3809 90.4123 48.3809H91.6328C91.7059 48.3809 91.7549 48.4296 91.7549 48.5028C91.7549 48.5761 91.7059 48.6249 91.6328 48.6249ZM89.1917 48.6249H87.9712C87.898 48.6249 87.8491 48.5761 87.8491 48.5028C87.8491 48.4296 87.898 48.3809 87.9712 48.3809H89.1917C89.2649 48.3809 89.3138 48.4296 89.3138 48.5028C89.3138 48.5761 89.2649 48.6249 89.1917 48.6249ZM86.7506 48.6249H85.5301C85.457 48.6249 85.4082 48.5761 85.4082 48.5028C85.4082 48.4296 85.457 48.3809 85.5301 48.3809H86.7506C86.824 48.3809 86.8728 48.4296 86.8728 48.5028C86.8728 48.5761 86.824 48.6249 86.7506 48.6249Z" fill="url(#paint25_linear)"/>
<path d="M144.481 7.3652H143.261C143.188 7.3652 143.139 7.31638 143.139 7.24315C143.139 7.16992 143.188 7.12109 143.261 7.12109H144.481C144.554 7.12109 144.603 7.16992 144.603 7.24315C144.603 7.31638 144.554 7.3652 144.481 7.3652ZM142.04 7.3652H140.82C140.747 7.3652 140.698 7.31638 140.698 7.24315C140.698 7.16992 140.747 7.12109 140.82 7.12109H142.04C142.114 7.12109 142.162 7.16992 142.162 7.24315C142.162 7.31638 142.114 7.3652 142.04 7.3652ZM139.599 7.3652H138.379C138.305 7.3652 138.257 7.31638 138.257 7.24315C138.257 7.16992 138.305 7.12109 138.379 7.12109H139.599C139.672 7.12109 139.721 7.16992 139.721 7.24315C139.721 7.31638 139.672 7.3652 139.599 7.3652ZM137.158 7.3652H135.937C135.864 7.3652 135.816 7.31638 135.816 7.24315C135.816 7.16992 135.864 7.12109 135.937 7.12109H137.158C137.231 7.12109 137.28 7.16992 137.28 7.24315C137.28 7.31638 137.231 7.3652 137.158 7.3652ZM134.717 7.3652H133.497C133.423 7.3652 133.375 7.31638 133.375 7.24315C133.375 7.16992 133.423 7.12109 133.497 7.12109H134.717C134.79 7.12109 134.839 7.16992 134.839 7.24315C134.839 7.31638 134.79 7.3652 134.717 7.3652ZM132.276 7.3652H131.056C130.982 7.3652 130.933 7.31638 130.933 7.24315C130.933 7.16992 130.982 7.12109 131.056 7.12109H132.276C132.349 7.12109 132.398 7.16992 132.398 7.24315C132.398 7.31638 132.349 7.3652 132.276 7.3652ZM129.835 7.3652H128.614C128.541 7.3652 128.492 7.31638 128.492 7.24315C128.492 7.16992 128.541 7.12109 128.614 7.12109H129.835C129.908 7.12109 129.957 7.16992 129.957 7.24315C129.957 7.31638 129.908 7.3652 129.835 7.3652ZM127.394 7.3652H126.173C126.1 7.3652 126.051 7.31638 126.051 7.24315C126.051 7.16992 126.1 7.12109 126.173 7.12109H127.394C127.467 7.12109 127.516 7.16992 127.516 7.24315C127.516 7.31638 127.467 7.3652 127.394 7.3652ZM124.953 7.3652H123.732C123.659 7.3652 123.61 7.31638 123.61 7.24315C123.61 7.16992 123.659 7.12109 123.732 7.12109H124.953C125.026 7.12109 125.075 7.16992 125.075 7.24315C125.075 7.31638 125.026 7.3652 124.953 7.3652ZM122.512 7.3652H121.291C121.218 7.3652 121.169 7.31638 121.169 7.24315C121.169 7.16992 121.218 7.12109 121.291 7.12109H122.512C122.585 7.12109 122.634 7.16992 122.634 7.24315C122.634 7.31638 122.585 7.3652 122.512 7.3652ZM120.071 7.3652H118.85C118.777 7.3652 118.728 7.31638 118.728 7.24315C118.728 7.16992 118.777 7.12109 118.85 7.12109H120.071C120.144 7.12109 120.193 7.16992 120.193 7.24315C120.193 7.31638 120.144 7.3652 120.071 7.3652ZM117.63 7.3652H116.409C116.336 7.3652 116.287 7.31638 116.287 7.24315C116.287 7.16992 116.336 7.12109 116.409 7.12109H117.63C117.703 7.12109 117.752 7.16992 117.752 7.24315C117.752 7.31638 117.703 7.3652 117.63 7.3652ZM115.189 7.3652H113.968C113.895 7.3652 113.846 7.31638 113.846 7.24315C113.846 7.16992 113.895 7.12109 113.968 7.12109H115.189C115.262 7.12109 115.311 7.16992 115.311 7.24315C115.311 7.31638 115.262 7.3652 115.189 7.3652ZM112.748 7.3652H111.527C111.454 7.3652 111.405 7.31638 111.405 7.24315C111.405 7.16992 111.454 7.12109 111.527 7.12109H112.748C112.821 7.12109 112.87 7.16992 112.87 7.24315C112.87 7.31638 112.821 7.3652 112.748 7.3652ZM110.307 7.3652H109.086C109.013 7.3652 108.964 7.31638 108.964 7.24315C108.964 7.16992 109.013 7.12109 109.086 7.12109H110.307C110.38 7.12109 110.429 7.16992 110.429 7.24315C110.429 7.31638 110.38 7.3652 110.307 7.3652ZM107.865 7.3652H106.645C106.572 7.3652 106.523 7.31638 106.523 7.24315C106.523 7.16992 106.572 7.12109 106.645 7.12109H107.865C107.939 7.12109 107.988 7.16992 107.988 7.24315C107.988 7.31638 107.939 7.3652 107.865 7.3652ZM105.424 7.3652H104.204C104.131 7.3652 104.082 7.31638 104.082 7.24315C104.082 7.16992 104.131 7.12109 104.204 7.12109H105.424C105.498 7.12109 105.547 7.16992 105.547 7.24315C105.547 7.31638 105.498 7.3652 105.424 7.3652ZM102.984 7.3652H101.763C101.69 7.3652 101.641 7.31638 101.641 7.24315C101.641 7.16992 101.69 7.12109 101.763 7.12109H102.984C103.057 7.12109 103.105 7.16992 103.105 7.24315C103.105 7.31638 103.057 7.3652 102.984 7.3652ZM100.542 7.3652H99.3219C99.2485 7.3652 99.1998 7.31638 99.1998 7.24315C99.1998 7.16992 99.2485 7.12109 99.3219 7.12109H100.542C100.616 7.12109 100.664 7.16992 100.664 7.24315C100.664 7.31638 100.616 7.3652 100.542 7.3652ZM98.1014 7.3652H96.8808C96.8075 7.3652 96.7587 7.31638 96.7587 7.24315C96.7587 7.16992 96.8075 7.12109 96.8808 7.12109H98.1014C98.1745 7.12109 98.2233 7.16992 98.2233 7.24315C98.2233 7.31638 98.1745 7.3652 98.1014 7.3652ZM95.6603 7.3652H94.4397C94.3666 7.3652 94.3176 7.31638 94.3176 7.24315C94.3176 7.16992 94.3666 7.12109 94.4397 7.12109H95.6603C95.7334 7.12109 95.7824 7.16992 95.7824 7.24315C95.7824 7.31638 95.7334 7.3652 95.6603 7.3652ZM93.2192 7.3652H91.9987C91.9255 7.3652 91.8765 7.31638 91.8765 7.24315C91.8765 7.16992 91.9255 7.12109 91.9987 7.12109H93.2192C93.2926 7.12109 93.3413 7.16992 93.3413 7.24315C93.3413 7.31638 93.2926 7.3652 93.2192 7.3652ZM90.7781 7.3652H89.5576C89.4844 7.3652 89.4357 7.31638 89.4357 7.24315C89.4357 7.16992 89.4844 7.12109 89.5576 7.12109H90.7781C90.8515 7.12109 90.9002 7.16992 90.9002 7.24315C90.9002 7.31638 90.8515 7.3652 90.7781 7.3652ZM88.337 7.3652H87.1165C87.0434 7.3652 86.9946 7.31638 86.9946 7.24315C86.9946 7.16992 87.0434 7.12109 87.1165 7.12109H88.337C88.4104 7.12109 88.4592 7.16992 88.4592 7.24315C88.4592 7.31638 88.4104 7.3652 88.337 7.3652ZM85.8962 7.3652H84.6756C84.6023 7.3652 84.5535 7.31638 84.5535 7.24315C84.5535 7.16992 84.6023 7.12109 84.6756 7.12109H85.8962C85.9693 7.12109 86.0181 7.16992 86.0181 7.24315C86.0181 7.31638 85.9693 7.3652 85.8962 7.3652ZM83.4551 7.3652H82.2346C82.1612 7.3652 82.1124 7.31638 82.1124 7.24315C82.1124 7.16992 82.1612 7.12109 82.2346 7.12109H83.4551C83.5282 7.12109 83.577 7.16992 83.577 7.24315C83.577 7.31638 83.5282 7.3652 83.4551 7.3652ZM81.014 7.3652H79.7935C79.7201 7.3652 79.6713 7.31638 79.6713 7.24315C79.6713 7.16992 79.7201 7.12109 79.7935 7.12109H81.014C81.0871 7.12109 81.1361 7.16992 81.1361 7.24315C81.1361 7.31638 81.0871 7.3652 81.014 7.3652ZM78.5729 7.3652H77.3524C77.2793 7.3652 77.2303 7.31638 77.2303 7.24315C77.2303 7.16992 77.2793 7.12109 77.3524 7.12109H78.5729C78.6461 7.12109 78.6951 7.16992 78.6951 7.24315C78.6951 7.31638 78.6461 7.3652 78.5729 7.3652ZM76.1318 7.3652H74.9113C74.8382 7.3652 74.7892 7.31638 74.7892 7.24315C74.7892 7.16992 74.8382 7.12109 74.9113 7.12109H76.1318C76.2052 7.12109 76.254 7.16992 76.254 7.24315C76.254 7.31638 76.2052 7.3652 76.1318 7.3652ZM73.6908 7.3652H72.4702C72.3971 7.3652 72.3483 7.31638 72.3483 7.24315C72.3483 7.16992 72.3971 7.12109 72.4702 7.12109H73.6908C73.7641 7.12109 73.8129 7.16992 73.8129 7.24315C73.8129 7.31638 73.7641 7.3652 73.6908 7.3652ZM71.2497 7.3652H70.0291C69.956 7.3652 69.9072 7.31638 69.9072 7.24315C69.9072 7.16992 69.956 7.12109 70.0291 7.12109H71.2497C71.323 7.12109 71.3718 7.16992 71.3718 7.24315C71.3718 7.31638 71.323 7.3652 71.2497 7.3652ZM68.8088 7.3652H67.5883C67.5149 7.3652 67.4662 7.31638 67.4662 7.24315C67.4662 7.16992 67.5149 7.12109 67.5883 7.12109H68.8088C68.882 7.12109 68.9307 7.16992 68.9307 7.24315C68.9307 7.31638 68.882 7.3652 68.8088 7.3652ZM66.3677 7.3652H65.1472C65.0738 7.3652 65.0251 7.31638 65.0251 7.24315C65.0251 7.16992 65.0738 7.12109 65.1472 7.12109H66.3677C66.4409 7.12109 66.4896 7.16992 66.4896 7.24315C66.4896 7.31638 66.4409 7.3652 66.3677 7.3652ZM63.9267 7.3652H62.7061C62.6327 7.3652 62.584 7.31638 62.584 7.24315C62.584 7.16992 62.6327 7.12109 62.7061 7.12109H63.9267C63.9998 7.12109 64.0488 7.16992 64.0488 7.24315C64.0488 7.31638 63.9998 7.3652 63.9267 7.3652Z" fill="url(#paint26_linear)"/>
<path d="M167.404 85.404H142.041C141.773 85.404 141.553 85.1844 141.553 84.9158C141.553 84.6474 141.773 84.4277 142.041 84.4277H167.404C167.672 84.4277 167.892 84.6474 167.892 84.9158C167.892 85.1844 167.672 85.404 167.404 85.404Z" fill="url(#paint27_linear)"/>
<path d="M154.539 89.8707C153.758 89.8707 153.123 89.2361 153.123 88.4549C153.123 87.6738 153.758 87.0391 154.539 87.0391C155.32 87.0391 155.955 87.6738 155.955 88.4549C155.955 89.2361 155.32 89.8707 154.539 89.8707ZM154.539 87.3077C153.904 87.3077 153.367 87.8203 153.367 88.4792C153.367 89.1384 153.88 89.651 154.539 89.651C155.198 89.651 155.71 89.1384 155.71 88.4792C155.71 87.8203 155.198 87.3077 154.539 87.3077Z" fill="#A8C5FF"/>
<path d="M158.152 89.7476C158.853 89.7476 159.421 89.1794 159.421 88.4783C159.421 87.7772 158.853 87.209 158.152 87.209C157.451 87.209 156.883 87.7772 156.883 88.4783C156.883 89.1794 157.451 89.7476 158.152 89.7476Z" fill="url(#paint28_linear)"/>
<path d="M170.725 73.2222C171.425 73.2222 171.994 72.654 171.994 71.9529C171.994 71.2518 171.425 70.6836 170.725 70.6836C170.024 70.6836 169.455 71.2518 169.455 71.9529C169.455 72.654 170.024 73.2222 170.725 73.2222Z" fill="#AAE3FF"/>
<path d="M109.33 108.665C109.33 107.03 111.283 105.736 113.724 105.736C116.14 105.736 118.118 107.054 118.118 108.665" fill="white"/>
<path d="M71.7393 68.1701C71.6662 68.1701 71.6172 68.1214 71.6172 68.0482V49.7647C71.6172 49.6913 71.6662 49.6426 71.7393 49.6426C71.8127 49.6426 71.8614 49.6913 71.8614 49.7647V68.0482C71.8614 68.1214 71.8127 68.1701 71.7393 68.1701Z" fill="#4382FF"/>
<path d="M70.1043 71.465C70.0312 71.465 69.9824 71.4163 69.9824 71.3429V53.0594C69.9824 52.9863 70.0312 52.9375 70.1043 52.9375C70.1777 52.9375 70.2264 52.9863 70.2264 53.0594V71.3429C70.2264 71.4163 70.1533 71.465 70.1043 71.465Z" fill="#4382FF"/>
<path d="M118.216 84.2069H99.9327C99.8595 84.2069 99.8105 84.1581 99.8105 84.085C99.8105 84.0116 99.8595 83.9629 99.9327 83.9629H118.216C118.289 83.9629 118.338 84.0116 118.338 84.085C118.338 84.1581 118.289 84.2069 118.216 84.2069Z" fill="url(#paint29_linear)"/>
<path d="M121.535 85.8673H100.054C99.9806 85.8673 99.9316 85.8183 99.9316 85.7452C99.9316 85.6718 99.9806 85.623 100.054 85.623H121.535C121.608 85.623 121.657 85.6718 121.657 85.7452C121.657 85.8183 121.584 85.8673 121.535 85.8673Z" fill="url(#paint30_linear)"/>
<path d="M94.3192 89.6258C94.246 89.6258 94.1973 89.5771 94.1973 89.5037C94.1973 89.4306 94.246 89.3818 94.3192 89.3818H95.5397C95.6131 89.3818 95.6618 89.4306 95.6618 89.5037C95.6618 89.5771 95.6131 89.6258 95.5397 89.6258H94.3192ZM96.7602 89.6014C96.6871 89.6014 96.6381 89.5527 96.6381 89.4793C96.6381 89.4062 96.6871 89.3574 96.7602 89.3574H97.9808C98.0539 89.3574 98.1029 89.4062 98.1029 89.4793C98.1029 89.5527 98.0539 89.6014 97.9808 89.6014H96.7602ZM99.2013 89.6014C99.1282 89.6014 99.0792 89.5527 99.0792 89.4793C99.0792 89.4062 99.1282 89.3574 99.2013 89.3574H100.422C100.495 89.3574 100.544 89.4062 100.544 89.4793C100.544 89.5527 100.495 89.6014 100.422 89.6014H99.2013ZM101.642 89.6014C101.569 89.6014 101.52 89.5527 101.52 89.4793C101.52 89.4062 101.569 89.3574 101.642 89.3574H102.863C102.936 89.3574 102.985 89.4062 102.985 89.4793C102.985 89.5527 102.936 89.6014 102.863 89.6014H101.642ZM104.084 89.6014C104.01 89.6014 103.961 89.5527 103.961 89.4793C103.961 89.4062 104.01 89.3574 104.084 89.3574H105.304C105.377 89.3574 105.426 89.4062 105.426 89.4793C105.426 89.5527 105.377 89.6014 105.304 89.6014H104.084Z" fill="url(#paint31_linear)"/>
<path d="M94.3192 90.9698C94.246 90.9698 94.1973 90.9208 94.1973 90.8477C94.1973 90.7745 94.246 90.7256 94.3192 90.7256L105.548 90.7012C105.621 90.7012 105.67 90.7502 105.67 90.8233C105.67 90.8964 105.621 90.9454 105.548 90.9454L94.3192 90.9698Z" fill="url(#paint32_linear)"/>
<path d="M184.638 88.6001H161.717V88.356H184.638C185.297 88.356 185.834 87.819 185.834 87.1599V73.2703C185.834 72.6113 185.297 72.0743 184.638 72.0743H171.774V71.8301H184.638C185.444 71.8301 186.079 72.4648 186.079 73.2703V87.1599C186.079 87.9411 185.42 88.6001 184.638 88.6001Z" fill="#BDD2FF"/>
<path d="M161.717 89.7476C162.417 89.7476 162.986 89.1794 162.986 88.4783C162.986 87.7772 162.417 87.209 161.717 87.209C161.015 87.209 160.447 87.7772 160.447 88.4783C160.447 89.1794 161.015 89.7476 161.717 89.7476Z" fill="url(#paint33_linear)"/>
<path d="M164.792 92.6056H154.247C154.174 92.6056 154.125 92.5566 154.125 92.4835C154.125 92.4103 154.174 92.3613 154.247 92.3613H164.792C164.866 92.3613 164.914 92.4103 164.914 92.4835C164.914 92.5566 164.866 92.6056 164.792 92.6056Z" fill="url(#paint34_linear)"/>
<path d="M164.792 93.8983H154.247C154.174 93.8983 154.125 93.8496 154.125 93.7764C154.125 93.7031 154.174 93.6543 154.247 93.6543H164.792C164.866 93.6543 164.914 93.7031 164.914 93.7764C164.914 93.8496 164.866 93.8983 164.792 93.8983Z" fill="url(#paint35_linear)"/>
<path d="M177.584 92.6056H167.038C166.965 92.6056 166.916 92.5566 166.916 92.4835C166.916 92.4103 166.965 92.3613 167.038 92.3613H177.584C177.657 92.3613 177.705 92.4103 177.705 92.4835C177.705 92.5566 177.657 92.6056 177.584 92.6056Z" fill="url(#paint36_linear)"/>
<path d="M177.584 93.8983H167.038C166.965 93.8983 166.916 93.8496 166.916 93.7764C166.916 93.7031 166.965 93.6543 167.038 93.6543H177.584C177.657 93.6543 177.705 93.7031 177.705 93.7764C177.705 93.8496 177.657 93.8983 177.584 93.8983Z" fill="url(#paint37_linear)"/>
<path d="M190.373 92.6056H179.827C179.754 92.6056 179.705 92.5566 179.705 92.4835C179.705 92.4103 179.754 92.3613 179.827 92.3613H190.373C190.446 92.3613 190.494 92.4103 190.494 92.4835C190.494 92.5566 190.446 92.6056 190.373 92.6056Z" fill="url(#paint38_linear)"/>
<path d="M190.373 93.8983H179.827C179.754 93.8983 179.705 93.8496 179.705 93.7764C179.705 93.7031 179.754 93.6543 179.827 93.6543H190.373C190.446 93.6543 190.494 93.7031 190.494 93.7764C190.494 93.8496 190.446 93.8983 190.373 93.8983Z" fill="url(#paint39_linear)"/>
<defs>
<linearGradient id="paint0_linear" x1="97" y1="102.667" x2="96.6667" y2="132.667" gradientUnits="userSpaceOnUse">
<stop stop-color="#320F96"/>
<stop offset="1" stop-color="#0022D7"/>
</linearGradient>
<linearGradient id="paint1_linear" x1="146.9" y1="140.172" x2="150.515" y2="109.024" gradientUnits="userSpaceOnUse">
<stop stop-color="#320F96"/>
<stop offset="1" stop-color="#5352C9"/>
</linearGradient>
<linearGradient id="paint2_linear" x1="100.225" y1="119.309" x2="123.526" y2="160.668" gradientUnits="userSpaceOnUse">
<stop stop-color="#844EFF"/>
<stop offset="1" stop-color="#88F8FF"/>
</linearGradient>
<linearGradient id="paint3_linear" x1="114.701" y1="97.8047" x2="114.701" y2="100.002" gradientUnits="userSpaceOnUse">
<stop stop-color="#73A2FF"/>
<stop offset="1" stop-color="#7F43FF" stop-opacity="0.86"/>
</linearGradient>
<linearGradient id="paint4_linear" x1="128.999" y1="101.001" x2="128.333" y2="81.334" gradientUnits="userSpaceOnUse">
<stop stop-color="#0026EF" stop-opacity="0.89"/>
<stop offset="0.98713" stop-color="#50D5FF"/>
</linearGradient>
<linearGradient id="paint5_linear" x1="78.3405" y1="78.3953" x2="170.156" y2="36.8032" gradientUnits="userSpaceOnUse">
<stop stop-color="#0026EF" stop-opacity="0.89"/>
<stop offset="0.98713" stop-color="#50D5FF"/>
</linearGradient>
<linearGradient id="paint6_linear" x1="71.7363" y1="9.32814" x2="139.923" y2="69.9999" gradientUnits="userSpaceOnUse">
<stop stop-color="#844EFF"/>
<stop offset="1" stop-color="#88F8FF"/>
</linearGradient>
<linearGradient id="paint7_linear" x1="99.0547" y1="65.8454" x2="120.064" y2="81.9151" gradientUnits="userSpaceOnUse">
<stop stop-color="#844EFF"/>
<stop offset="1" stop-color="#88F8FF"/>
</linearGradient>
<linearGradient id="paint8_linear" x1="126.15" y1="65.8454" x2="147.16" y2="81.9151" gradientUnits="userSpaceOnUse">
<stop stop-color="#844EFF"/>
<stop offset="1" stop-color="#88F8FF"/>
</linearGradient>
<linearGradient id="paint9_linear" x1="153.246" y1="65.8454" x2="174.256" y2="81.9151" gradientUnits="userSpaceOnUse">
<stop stop-color="#844EFF"/>
<stop offset="1" stop-color="#88F8FF"/>
</linearGradient>
<linearGradient id="paint10_linear" x1="70" y1="27.6673" x2="80.3333" y2="11.6673" gradientUnits="userSpaceOnUse">
<stop stop-color="#4CD5F3"/>
<stop offset="1" stop-color="#0124DB" stop-opacity="0.89"/>
</linearGradient>
<linearGradient id="paint11_linear" x1="76.2666" y1="16.5898" x2="76.2666" y2="22.2043" gradientUnits="userSpaceOnUse">
<stop stop-color="#2FB8FF"/>
<stop offset="1" stop-color="#9EECD9"/>
</linearGradient>
<linearGradient id="paint12_linear" x1="105.207" y1="25.2247" x2="104.936" y2="13.334" gradientUnits="userSpaceOnUse">
<stop stop-color="#4D4CF3"/>
<stop offset="1" stop-color="#0124DB" stop-opacity="0.89"/>
</linearGradient>
<linearGradient id="paint13_linear" x1="106.536" y1="16.5898" x2="106.536" y2="22.2043" gradientUnits="userSpaceOnUse">
<stop stop-color="#2FB8FF"/>
<stop offset="1" stop-color="#9EECD9"/>
</linearGradient>
<linearGradient id="paint14_linear" x1="135.475" y1="25.2247" x2="135.204" y2="13.334" gradientUnits="userSpaceOnUse">
<stop stop-color="#4D4CF3"/>
<stop offset="1" stop-color="#0124DB" stop-opacity="0.89"/>
</linearGradient>
<linearGradient id="paint15_linear" x1="136.806" y1="16.5898" x2="136.806" y2="22.2043" gradientUnits="userSpaceOnUse">
<stop stop-color="#2FB8FF"/>
<stop offset="1" stop-color="#9EECD9"/>
</linearGradient>
<linearGradient id="paint16_linear" x1="127.281" y1="97.7802" x2="127.281" y2="95.2215" gradientUnits="userSpaceOnUse">
<stop offset="0.196787" stop-color="#1C00C7"/>
<stop offset="1" stop-color="#1C00C7" stop-opacity="0"/>
</linearGradient>
<linearGradient id="paint17_linear" x1="66.9746" y1="77.2836" x2="109.996" y2="91.734" gradientUnits="userSpaceOnUse">
<stop stop-color="#844EFF"/>
<stop offset="1" stop-color="#88F8FF"/>
</linearGradient>
<linearGradient id="paint18_linear" x1="8.34375" y1="76.3764" x2="46.2283" y2="89.4701" gradientUnits="userSpaceOnUse">
<stop stop-color="#844EFF"/>
<stop offset="1" stop-color="#88F8FF"/>
</linearGradient>
<linearGradient id="paint19_linear" x1="68.4759" y1="72.1132" x2="68.9606" y2="64.7228" gradientUnits="userSpaceOnUse">
<stop stop-color="#9E7CFD"/>
<stop offset="1" stop-color="#7CDEFD" stop-opacity="0"/>
</linearGradient>
<linearGradient id="paint20_linear" x1="68.4759" y1="72.1132" x2="68.9606" y2="64.7228" gradientUnits="userSpaceOnUse">
<stop stop-color="#9E7CFD"/>
<stop offset="1" stop-color="#7CDEFD" stop-opacity="0"/>
</linearGradient>
<linearGradient id="paint21_linear" x1="86" y1="68" x2="52.6667" y2="28.6667" gradientUnits="userSpaceOnUse">
<stop stop-color="#2E41F0"/>
<stop offset="1" stop-color="#002E73"/>
</linearGradient>
<linearGradient id="paint22_linear" x1="25.3828" y1="71.1668" x2="93.7401" y2="96.4868" gradientUnits="userSpaceOnUse">
<stop stop-color="#844EFF"/>
<stop offset="1" stop-color="#88F8FF"/>
</linearGradient>
<linearGradient id="paint23_linear" x1="25.3828" y1="71.1668" x2="90.6761" y2="93.9673" gradientUnits="userSpaceOnUse">
<stop stop-color="#844EFF"/>
<stop offset="1" stop-color="#88F8FF"/>
</linearGradient>
<linearGradient id="paint24_linear" x1="25.9183" y1="136.506" x2="85.448" y2="122.505" gradientUnits="userSpaceOnUse">
<stop stop-color="#0026EF" stop-opacity="0.89"/>
<stop offset="0.98713" stop-color="#50D5FF"/>
</linearGradient>
<linearGradient id="paint25_linear" x1="133.472" y1="48.3809" x2="133.472" y2="48.6249" gradientUnits="userSpaceOnUse">
<stop stop-color="#2FB8FF"/>
<stop offset="1" stop-color="#9EECD9"/>
</linearGradient>
<linearGradient id="paint26_linear" x1="103.594" y1="7.12109" x2="103.594" y2="7.3652" gradientUnits="userSpaceOnUse">
<stop stop-color="#2FB8FF"/>
<stop offset="1" stop-color="#9EECD9"/>
</linearGradient>
<linearGradient id="paint27_linear" x1="154.722" y1="84.4277" x2="154.722" y2="85.404" gradientUnits="userSpaceOnUse">
<stop stop-color="#2FB8FF"/>
<stop offset="1" stop-color="#9EECD9"/>
</linearGradient>
<linearGradient id="paint28_linear" x1="158.152" y1="87.209" x2="158.152" y2="89.7476" gradientUnits="userSpaceOnUse">
<stop stop-color="#2FB8FF"/>
<stop offset="1" stop-color="#9EECD9"/>
</linearGradient>
<linearGradient id="paint29_linear" x1="109.074" y1="83.9629" x2="109.074" y2="84.2069" gradientUnits="userSpaceOnUse">
<stop stop-color="#2FB8FF"/>
<stop offset="1" stop-color="#9EECD9"/>
</linearGradient>
<linearGradient id="paint30_linear" x1="110.794" y1="85.623" x2="110.794" y2="85.8673" gradientUnits="userSpaceOnUse">
<stop stop-color="#2FB8FF"/>
<stop offset="1" stop-color="#9EECD9"/>
</linearGradient>
<linearGradient id="paint31_linear" x1="99.8116" y1="89.3574" x2="99.8116" y2="89.6258" gradientUnits="userSpaceOnUse">
<stop stop-color="#2FB8FF"/>
<stop offset="1" stop-color="#9EECD9"/>
</linearGradient>
<linearGradient id="paint32_linear" x1="99.9337" y1="90.7012" x2="99.9337" y2="90.9698" gradientUnits="userSpaceOnUse">
<stop stop-color="#2FB8FF"/>
<stop offset="1" stop-color="#9EECD9"/>
</linearGradient>
<linearGradient id="paint33_linear" x1="161.717" y1="87.209" x2="161.717" y2="89.7476" gradientUnits="userSpaceOnUse">
<stop stop-color="#2FB8FF"/>
<stop offset="1" stop-color="#9EECD9"/>
</linearGradient>
<linearGradient id="paint34_linear" x1="159.52" y1="92.3613" x2="159.52" y2="92.6056" gradientUnits="userSpaceOnUse">
<stop stop-color="#2FB8FF"/>
<stop offset="1" stop-color="#9EECD9"/>
</linearGradient>
<linearGradient id="paint35_linear" x1="159.52" y1="93.6543" x2="159.52" y2="93.8983" gradientUnits="userSpaceOnUse">
<stop stop-color="#2FB8FF"/>
<stop offset="1" stop-color="#9EECD9"/>
</linearGradient>
<linearGradient id="paint36_linear" x1="172.311" y1="92.3613" x2="172.311" y2="92.6056" gradientUnits="userSpaceOnUse">
<stop stop-color="#2FB8FF"/>
<stop offset="1" stop-color="#9EECD9"/>
</linearGradient>
<linearGradient id="paint37_linear" x1="172.311" y1="93.6543" x2="172.311" y2="93.8983" gradientUnits="userSpaceOnUse">
<stop stop-color="#2FB8FF"/>
<stop offset="1" stop-color="#9EECD9"/>
</linearGradient>
<linearGradient id="paint38_linear" x1="185.1" y1="92.3613" x2="185.1" y2="92.6056" gradientUnits="userSpaceOnUse">
<stop stop-color="#2FB8FF"/>
<stop offset="1" stop-color="#9EECD9"/>
</linearGradient>
<linearGradient id="paint39_linear" x1="185.1" y1="93.6543" x2="185.1" y2="93.8983" gradientUnits="userSpaceOnUse">
<stop stop-color="#2FB8FF"/>
<stop offset="1" stop-color="#9EECD9"/>
</linearGradient>
</defs>
</svg>
