<svg width="12" height="22" viewBox="0 0 12 22" fill="none" xmlns="http://www.w3.org/2000/svg">
<path d="M5.9917 0.810059C2.92871 0.810059 0.47998 3.25879 0.47998 6.31348C0.47998 8.55469 1.7832 10.5469 3.8501 11.4019V19.354C3.8501 19.6196 3.94141 19.8687 4.14062 20.0596L5.60986 21.4707C5.82568 21.6616 6.21582 21.7031 6.47314 21.4541L9.08789 18.8394C9.36182 18.5654 9.35352 18.1587 9.07959 17.8848L7.66016 16.4653L9.68555 14.4399C9.94287 14.1743 9.95117 13.7676 9.66895 13.4854L7.72656 11.5347C10.1587 10.4556 11.5117 8.55469 11.5117 6.31348C11.5117 3.26709 9.05469 0.810059 5.9917 0.810059ZM5.9917 5.83203C5.19482 5.83203 4.54736 5.18457 4.54736 4.37939C4.54736 3.57422 5.18652 2.92676 5.9917 2.92676C6.79688 2.92676 7.44434 3.58252 7.44434 4.37939C7.44434 5.18457 6.79688 5.83203 5.9917 5.83203Z" fill="black" style="mix-blend-mode:overlay"/>
<path d="M5.9917 0.810059C2.92871 0.810059 0.47998 3.25879 0.47998 6.31348C0.47998 8.55469 1.7832 10.5469 3.8501 11.4019V19.354C3.8501 19.6196 3.94141 19.8687 4.14062 20.0596L5.60986 21.4707C5.82568 21.6616 6.21582 21.7031 6.47314 21.4541L9.08789 18.8394C9.36182 18.5654 9.35352 18.1587 9.07959 17.8848L7.66016 16.4653L9.68555 14.4399C9.94287 14.1743 9.95117 13.7676 9.66895 13.4854L7.72656 11.5347C10.1587 10.4556 11.5117 8.55469 11.5117 6.31348C11.5117 3.26709 9.05469 0.810059 5.9917 0.810059ZM5.9917 5.83203C5.19482 5.83203 4.54736 5.18457 4.54736 4.37939C4.54736 3.57422 5.18652 2.92676 5.9917 2.92676C6.79688 2.92676 7.44434 3.58252 7.44434 4.37939C7.44434 5.18457 6.79688 5.83203 5.9917 5.83203Z" fill="black" fill-opacity="0.8" style="mix-blend-mode:overlay"/>
</svg>
